<?xml version="1.0" encoding="utf-8"?>
<!-- Generator: Adobe Illustrator 22.1.0, SVG Export Plug-In . SVG Version: 6.00 Build 0)  -->
<svg version="1.1" id="Layer_1" xmlns="http://www.w3.org/2000/svg" xmlns:xlink="http://www.w3.org/1999/xlink" x="0px" y="0px"
	 viewBox="0 0 230 82.5" style="enable-background:new 0 0 230 82.5;" xml:space="preserve">
<style type="text/css">
	.st0{fill:none;stroke:#FFFFFF;stroke-width:2;stroke-miterlimit:10;}
	.st1{fill:#FFFFFF;}
</style>
<path class="st0" d="M32.5,49.1l16.3-14.3c0,0,6-4.4,8,1.6c0,0-4.5,0.6-5.1,4.2c0,0-5.7,15.6-19.1-9.4c0,0,7.9,2.5,14.1,4
	c10,2.3,3,10.9-2.7,11.9L32.5,49.1z"/>
<g>
	<path class="st1" d="M72.7,48.6c-2.1,0-3.8-0.7-5.2-2.1c-1.4-1.4-2.1-3.2-2.1-5.2c0-2.1,0.7-3.8,2.1-5.2c1.4-1.4,3.2-2.1,5.3-2.1
		c1.2,0,2.3,0.2,3.1,0.6c0.8,0.4,1.6,1,2.4,1.7l-1.9,2.2c-0.6-0.6-1.2-1-1.7-1.2s-1.2-0.4-1.9-0.4c-1.2,0-2.2,0.4-3,1.3
		s-1.2,1.9-1.2,3.2c0,1.2,0.4,2.3,1.2,3.2s1.8,1.3,3,1.3c0.8,0,1.4-0.1,2-0.4s1.1-0.7,1.8-1.3l2,2.1C77.7,47,76.9,47.6,76,48
		S74,48.6,72.7,48.6z"/>
	<path class="st1" d="M80.2,36.3v-2.7h3.2v2.7H80.2z M80.3,48.3V37.5h3.1v10.9H80.3z"/>
	<path class="st1" d="M90.9,48.6c-1.6,0-3-0.5-4-1.6c-1.1-1.1-1.6-2.4-1.6-4c0-1.6,0.5-2.9,1.6-4c1.1-1.1,2.4-1.7,4.1-1.7
		c1.7,0,3.2,0.6,4.3,1.9L93.5,41c-0.8-0.7-1.6-1.1-2.5-1.1c-0.8,0-1.4,0.3-1.9,0.9c-0.5,0.6-0.8,1.3-0.8,2.1c0,0.9,0.3,1.6,0.8,2.1
		c0.5,0.6,1.2,0.9,2,0.9c0.9,0,1.7-0.4,2.5-1.2l1.8,1.8c-0.6,0.6-1.2,1.1-1.9,1.5S91.9,48.6,90.9,48.6z"/>
	<path class="st1" d="M101.7,48.6c-1.6,0-3-0.5-4.1-1.6c-1.1-1-1.6-2.4-1.6-4.1c0-1.6,0.5-2.9,1.5-4c1-1.1,2.3-1.6,3.9-1.6
		c1.7,0,3,0.6,3.9,1.7c0.9,1.1,1.4,2.5,1.4,4.2c0,0.2,0,0.4,0,0.8h-7.6c0.1,0.7,0.5,1.2,0.9,1.6c0.5,0.4,1,0.5,1.7,0.5
		c1,0,1.8-0.4,2.6-1.1l1.8,1.6C105.1,47.9,103.6,48.6,101.7,48.6z M99.1,42h4.6c-0.1-0.7-0.3-1.3-0.7-1.7s-0.9-0.6-1.6-0.6
		c-0.6,0-1.1,0.2-1.6,0.6C99.4,40.8,99.2,41.3,99.1,42z"/>
	<path class="st1" d="M108.5,48.3V37.5h3.1v2.2c0.7-1.7,1.9-2.5,3.5-2.4v3.2h-0.2c-1.1,0-1.9,0.3-2.4,1c-0.6,0.6-0.9,1.6-0.9,2.9v4
		H108.5z"/>
	<path class="st1" d="M125.7,46.9c-1.1,1.1-2.5,1.6-4.2,1.6c-1.7,0-3.1-0.5-4.2-1.6c-1.1-1.1-1.7-2.4-1.7-4c0-1.6,0.6-2.9,1.7-4
		c1.1-1.1,2.5-1.6,4.2-1.6s3.1,0.5,4.2,1.6c1.1,1.1,1.7,2.4,1.7,4C127.4,44.5,126.8,45.8,125.7,46.9z M121.5,45.9
		c0.9,0,1.5-0.3,2-0.9c0.5-0.6,0.8-1.3,0.8-2.1c0-0.8-0.3-1.5-0.8-2.1c-0.5-0.6-1.2-0.9-2.1-0.9c-0.9,0-1.5,0.3-2,0.9
		c-0.5,0.6-0.8,1.3-0.8,2.1c0,0.8,0.3,1.5,0.8,2.1C120,45.6,120.7,45.9,121.5,45.9z"/>
	<path class="st1" d="M129.1,48.3V37.5h3.1V39c0.9-1.2,2-1.7,3.2-1.7c1.2,0,2.1,0.4,2.7,1.1c0.6,0.7,1,1.7,1,3v7H136v-6.1
		c0-0.7-0.2-1.3-0.5-1.6c-0.3-0.4-0.8-0.6-1.4-0.6c-0.6,0-1.1,0.2-1.4,0.6c-0.3,0.4-0.5,0.9-0.5,1.6v6.1H129.1z"/>
	<path class="st1" d="M146.4,48.6c-1.6,0-3-0.5-4.1-1.6c-1.1-1-1.6-2.4-1.6-4.1c0-1.6,0.5-2.9,1.5-4c1-1.1,2.3-1.6,3.9-1.6
		c1.7,0,3,0.6,3.9,1.7c0.9,1.1,1.4,2.5,1.4,4.2c0,0.2,0,0.4,0,0.8h-7.6c0.1,0.7,0.5,1.2,0.9,1.6c0.5,0.4,1,0.5,1.7,0.5
		c1,0,1.8-0.4,2.6-1.1l1.8,1.6C149.7,47.9,148.3,48.6,146.4,48.6z M143.7,42h4.6c-0.1-0.7-0.3-1.3-0.7-1.7s-0.9-0.6-1.6-0.6
		c-0.6,0-1.1,0.2-1.6,0.6C144.1,40.8,143.9,41.3,143.7,42z"/>
	<path class="st1" d="M163.8,48.6c-1.5,0-2.8-0.5-3.8-1.6c-1-1.1-1.6-2.4-1.6-3.9s0.5-2.8,1.6-3.9s2.3-1.6,3.8-1.6
		c1.6,0,3,0.6,4.2,1.9l-1,1.1c-1-1-2-1.5-3.2-1.5c-1.1,0-1.9,0.4-2.7,1.2c-0.7,0.8-1.1,1.8-1.1,2.9c0,1.1,0.4,2.1,1.1,2.9
		c0.7,0.8,1.7,1.2,2.7,1.2c1.1,0,2.2-0.5,3.2-1.6l1,1C166.9,47.9,165.5,48.6,163.8,48.6z"/>
	<path class="st1" d="M170.3,48.3V33.5h1.6v14.8H170.3z"/>
	<path class="st1" d="M178.9,48.6c-1.2,0-2.2-0.4-2.9-1.1s-1.1-1.8-1.1-3.1v-6.5h1.6V44c0,1,0.3,1.8,0.8,2.3
		c0.5,0.6,1.2,0.8,2.1,0.8c0.9,0,1.7-0.3,2.3-0.9c0.6-0.6,0.9-1.4,0.9-2.4v-6h1.5v10.5h-1.5v-1.8C181.6,47.9,180.4,48.6,178.9,48.6z
		"/>
	<path class="st1" d="M192.6,48.6c-1.6,0-3-0.7-4-2.2v2H187V33.5h1.6V40c1.1-1.6,2.4-2.3,4-2.3c1.3,0,2.5,0.5,3.5,1.5
		c1,1,1.5,2.3,1.5,4c0,1.6-0.5,3-1.5,4C195.1,48.1,193.9,48.6,192.6,48.6z M192.3,47.2c1.1,0,1.9-0.4,2.6-1.1c0.7-0.7,1.1-1.7,1.1-3
		c0-1.2-0.4-2.2-1.1-2.9c-0.7-0.8-1.6-1.1-2.6-1.1c-1,0-1.9,0.4-2.7,1.2c-0.8,0.8-1.1,1.7-1.1,2.9c0,1.2,0.4,2.1,1.1,2.9
		C190.4,46.8,191.3,47.2,192.3,47.2z"/>
</g>
</svg>
