<?xml version="1.0" encoding="utf-8"?>
<!-- Generator: Adobe Illustrator 22.1.0, SVG Export Plug-In . SVG Version: 6.00 Build 0)  -->
<svg version="1.1" id="Layer_1" xmlns="http://www.w3.org/2000/svg" xmlns:xlink="http://www.w3.org/1999/xlink" x="0px" y="0px"
	 viewBox="0 0 18 18" style="enable-background:new 0 0 18 18;" xml:space="preserve">
<style type="text/css">
	.st0{fill:#3270F7;}
</style>
<path class="st0" d="M5,4L5,4c0.6,0,1-0.4,1-1V1c0-0.5-0.4-1-1-1h0C4.4,0,4,0.4,4,1v2C4,3.6,4.4,4,5,4z"/>
<path class="st0" d="M13,4L13,4c0.6,0,1-0.4,1-1V1c0-0.5-0.4-1-1-1h0c-0.5,0-1,0.4-1,1v2C12,3.6,12.4,4,13,4z"/>
<path class="st0" d="M18,3H0v0c0-1.1,0.9-2,2-2h14C17.1,1,18,1.9,18,3L18,3z"/>
<rect x="0" y="5" class="st0" width="18" height="2"/>
<path class="st0" d="M13,11H5c-0.6,0-1-0.4-1-1v0c0-0.6,0.4-1,1-1h8c0.6,0,1,0.4,1,1v0C14,10.6,13.6,11,13,11z"/>
<path class="st0" d="M9,14H5c-0.6,0-1-0.4-1-1v0c0-0.6,0.4-1,1-1h4c0.6,0,1,0.4,1,1v0C10,13.6,9.6,14,9,14z"/>
<rect x="-5.5" y="8.5" transform="matrix(6.219564e-11 -1 1 6.219564e-11 -8.5 10.5)" class="st0" width="13" height="2"/>
<rect x="10.5" y="8.5" transform="matrix(6.219564e-11 -1 1 6.219564e-11 7.5 26.5)" class="st0" width="13" height="2"/>
<path class="st0" d="M16,18H2c-1.1,0-2-0.9-2-2v0h18v0C18,17.1,17.1,18,16,18z"/>
</svg>
